<?xml version="1.0" encoding="utf-8"?>
<!-- Generator: Adobe Illustrator 25.2.3, SVG Export Plug-In . SVG Version: 6.00 Build 0)  -->
<svg version="1.1" id="Flat" xmlns="http://www.w3.org/2000/svg" xmlns:xlink="http://www.w3.org/1999/xlink" x="0px" y="0px"
	 viewBox="0 0 512 512" style="enable-background:new 0 0 512 512;" xml:space="preserve">
<style type="text/css">
	.st0{opacity:5.000000e-02;}
	.st1{fill:#4DCCFF;}
	.st2{fill:#FDBF67;}
	.st3{fill:#FFFDFA;}
	.st4{fill:#FB8656;}
	.st5{fill:#FFD4CF;}
	.st6{fill:#F2FAFF;}
</style>
<path class="st0" d="M488,82h-46V54c0-11-9-20-20-20H110c-11,0-20,9-20,20v28H44c-5.5,0-10,4.5-10,10v332c0,5.5,4.5,10,10,10h46v44
	c0,11,9,20,20,20h228h84h44v-64h22c5.5,0,10-4.5,10-10V92C498,86.5,493.5,82,488,82z"/>
<g>
	<path class="st1" d="M100,24h312c11,0,20,9,20,20v424c0,11-9,20-20,20H100c-11,0-20-9-20-20V44C80,33,89,24,100,24z"/>
	<path class="st2" d="M478,72H296c-22.1,0-40,17.9-40,40c0-22.1-17.9-40-40-40H34c-5.5,0-10,4.5-10,10v332c0,5.5,4.5,10,10,10h444
		c5.5,0,10-4.5,10-10V82C488,76.5,483.5,72,478,72z"/>
	<path class="st3" d="M288,128h168v152H288V128z"/>
	<path class="st4" d="M288,264h168l0,0v22c0,5.5-4.5,10-10,10H298c-5.5,0-10-4.5-10-10V264L288,264z"/>
	<path class="st5" d="M368,368v-84c0-11-9-20-20-20s-20,9-20,20v108l-16.1-3.2c-10.8-2.2-21.4,4.9-23.5,15.7
		c-0.3,1.3-0.4,2.6-0.4,3.9v4.3c0,7,3.7,13.5,9.7,17.1L328,448v40h128v-90c0-16.6-13.4-30-30-30l0,0H368z"/>
	<path class="st2" d="M344,232v-56l64,32L344,232z"/>
	<path class="st4" d="M208,144l-32-24l-32,24V72h64V144z"/>
	<path class="st4" d="M298,112h148c5.5,0,10,4.5,10,10v22l0,0H288l0,0v-22C288,116.5,292.5,112,298,112z"/>
	<g>
		<g>
			<path class="st3" d="M48,176h56v16H48V176z"/>
			<path class="st3" d="M120,176h104v16H120V176z"/>
			<path class="st3" d="M48,224h120v16H48V224z"/>
			<path class="st3" d="M184,224h40v16h-40V224z"/>
			<path class="st3" d="M48,272h56v16H48V272z"/>
			<path class="st3" d="M120,272h104v16H120V272z"/>
			<path class="st3" d="M48,320h120v16H48V320z"/>
			<path class="st3" d="M184,320h40v16h-40V320z"/>
			<path class="st3" d="M48,368h56v16H48V368z"/>
			<path class="st3" d="M120,368h104v16H120V368z"/>
		</g>
		<path class="st3" d="M48,136h40v16H48V136z"/>
		<path class="st3" d="M104,136h16v16h-16V136z"/>
	</g>
	<path class="st6" d="M216,448h80v16h-80V448z"/>
	<path class="st4" d="M256,88c4.4,0,8,3.6,8,8v328l0,0h-16l0,0V96C248,91.6,251.6,88,256,88z"/>
</g>
</svg>
