<?xml version="1.0" encoding="utf-8"?>
<!-- Generator: Adobe Illustrator 25.2.3, SVG Export Plug-In . SVG Version: 6.00 Build 0)  -->
<svg version="1.1" id="Flat" xmlns="http://www.w3.org/2000/svg" xmlns:xlink="http://www.w3.org/1999/xlink" x="0px" y="0px"
	 viewBox="0 0 512 512" style="enable-background:new 0 0 512 512;" xml:space="preserve">
<style type="text/css">
	.st0{opacity:5.000000e-02;}
	.st1{fill:#FFFFFF;}
	.st2{fill:#4DCCFF;}
	.st3{fill:#FB8656;}
	.st4{fill:#FDBF67;}
	.st5{fill:#FDAD67;}
	.st6{fill:#FFD4CF;}
	.st7{fill:#FBB8B0;}
	.st8{fill:#D16054;}
	.st9{fill:#F2FAFF;}
	.st10{fill:#B3E9FF;}
</style>
<path class="st0" d="M488,34H44c-5.5,0-10,4.5-10,10v54v280v80v30c0,5.5,4.5,10,10,10h30h24h18h198h174c5.5,0,10-4.5,10-10V98V44
	C498,38.5,493.5,34,488,34z"/>
<path class="st1" d="M34,24h444c5.5,0,10,4.5,10,10v444c0,5.5-4.5,10-10,10H34c-5.5,0-10-4.5-10-10V34C24,28.5,28.5,24,34,24z"/>
<path class="st2" d="M34,24h444c5.5,0,10,4.5,10,10v54l0,0H24l0,0V34C24,28.5,28.5,24,34,24z"/>
<g>
	<path class="st3" d="M289.4,326.1c12.2-18.4,7.1-43.3-11.3-55.5c-1.9-1.3-3.9-2.4-6-3.3V180c0-33.1-26.9-60-60-60h-56
		c-33.1,0-60,26.9-60,60v87.3c-20.3,8.8-29.5,32.4-20.7,52.7c0.9,2.1,2,4.1,3.3,6c-27.6,14-38.6,47.7-24.6,75.3
		c14,27.6,47.7,38.6,75.3,24.6c5.4-2.8,10.4-6.4,14.6-10.7c21.6,22.1,57.1,22.5,79.2,0.8c0.3-0.3,0.5-0.5,0.8-0.8
		c21.7,22.1,57.1,22.4,79.2,0.8c22.1-21.7,22.4-57.1,0.8-79.2C299.7,332.4,294.8,328.8,289.4,326.1z"/>
	<path class="st4" d="M304,488c-16.9-80.8-64.2-138.9-120-138.9S80.9,407.2,64,488H304z"/>
	<path class="st5" d="M86,416h-2.3c-8.4,17.3-15.1,50.9-19.7,72h42v-52C106,425,97,416,86,416z"/>
	<path class="st6" d="M143.7,360l40,56l40-56l-8-40h-64L143.7,360z"/>
	<path class="st7" d="M215.7,320h-64l-4.5,22.4l6.1,3.8c18.8,11.6,42.5,11.6,61.3-0.1l5.6-3.5L215.7,320z"/>
	<path class="st6" d="M268,224h-20v-8h-0.1c-9.8,0-18.9-5.2-24-13.6L208,176l-0.7,1.2c-14.5,24.1-40.5,38.8-68.6,38.8H120v8h-20
		c-11,0-20,9-20,20v16c0,11,9,20,20,20h20c0,0,9,30,23.7,39.1l19.2,11.8c13,8,29.3,8,42.2-0.1l19.4-12.1
		C239.1,309.6,248,280,248,280h20c11,0,20-9,20-20v-16C288,233,279,224,268,224L268,224z"/>
	<path class="st6" d="M268,224h-20v-8h-0.1c-9.8,0-18.9-5.2-24-13.6L208,176l-0.7,1.2c-14.5,24.1-40.5,38.8-68.6,38.8H120v8h-20
		c-11,0-20,9-20,20v16c0,11,9,20,20,20h20c0,0,9,30,23.7,39.1l19.2,11.8c13,8,29.3,8,42.2-0.1l19.4-12.1
		C239.1,309.6,248,280,248,280h20c11,0,20-9,20-20v-16C288,233,279,224,268,224L268,224z"/>
	<path class="st8" d="M184,304c-13.5,0-24-8.8-24-20h16c0,1.4,3,4,8,4s8-2.6,8-4h16C208,295.2,197.5,304,184,304z"/>
	<path class="st8" d="M208,240.2h16v16h-16V240.2z"/>
	<path class="st8" d="M144,240.2h16v16h-16V240.2z"/>
	<g>
		<path class="st9" d="M48.3,48.2h16v16h-16V48.2z"/>
		<path class="st9" d="M80.3,48.2h16v16h-16V48.2z"/>
		<path class="st9" d="M112.3,48.2h16v16h-16L112.3,48.2z"/>
		<path class="st9" d="M416.3,48.2h16v16h-16V48.2z"/>
		<path class="st9" d="M448.3,48.2h16v16h-16V48.2z"/>
	</g>
	<path class="st4" d="M162.3,304.7c-1.2-4.2-5.6-6.7-9.8-5.5c-0.1,0-0.3,0.1-0.4,0.1l-17.6,6c-0.2,0.1-0.4,0.1-0.7,0.2
		c-11.4,4.3-24.1-1.5-28.3-12.9c-0.9-2.5-1.4-5.1-1.4-7.7v-4.7h-4c-4.3,0-8.5-1.4-12-4v8c-0.1,10.2,3.9,20.1,11,27.4
		c10.4,10.5,26.1,14,40,9l18.2-6.2C161.2,313.1,163.4,308.8,162.3,304.7L162.3,304.7z"/>
	<g>
		<path class="st10" d="M332,120h104c11,0,20,9,20,20v104c0,11-9,20-20,20H332c-11,0-20-9-20-20V140C312,129,321,120,332,120z"/>
		<path class="st9" d="M394,208c0,0,14-9,14-20v-16c0-11-9-20-20-20h-8c-11,0-20,9-20,20v16c0,11,14,20,14,20c-16.6,0-30,13.4-30,30
			l0,0v26h80v-26C424,221.4,410.6,208,394,208L394,208z"/>
	</g>
	<g>
		<path class="st10" d="M332,296h104c11,0,20,9,20,20v104c0,11-9,20-20,20H332c-11,0-20-9-20-20V316C312,305,321,296,332,296z"/>
		<path class="st9" d="M394,384c0,0,14-9,14-20v-16c0-11-9-20-20-20h-8c-11,0-20,9-20,20v16c0,11,14,20,14,20c-16.6,0-30,13.4-30,30
			l0,0v26h80v-26C424,397.4,410.6,384,394,384L394,384z"/>
	</g>
	<path class="st6" d="M120,372.2c-6.4-5.8-16.3-5.2-22.4,0.9l-9.6,9.6V348c0-11-9-20-20-20h-4c-22.1,0-40,17.9-40,40v110
		c0,5.5,4.5,10,10,10h54v-56l32.6-36.7c6.2-6.2,6.2-16.4,0-22.6C120.4,372.5,120.2,372.3,120,372.2z"/>
	<path class="st4" d="M24,478c0,5.5,4.5,10,10,10h54v-40H24V478z"/>
</g>
</svg>
