<?xml version="1.0" encoding="utf-8"?>
<!-- Generator: Adobe Illustrator 25.2.3, SVG Export Plug-In . SVG Version: 6.00 Build 0)  -->
<svg version="1.1" id="Flat" xmlns="http://www.w3.org/2000/svg" xmlns:xlink="http://www.w3.org/1999/xlink" x="0px" y="0px"
	 viewBox="0 0 512 512" style="enable-background:new 0 0 512 512;" xml:space="preserve">
<style type="text/css">
	.st0{opacity:5.000000e-02;}
	.st1{fill:#FB8656;}
	.st2{fill:#FDBF67;}
	.st3{fill:#FDB651;}
	.st4{fill:#FFD4CF;}
	.st5{fill:#FBB8B0;}
	.st6{fill:#4DCCFF;}
	.st7{fill:#25B1FA;}
	.st8{fill:#D16054;}
	.st9{fill:#FFFDFA;}
	.st10{fill:#F2FAFF;}
</style>
<path class="st0" d="M482,466c0-1.8,0-3.6-0.1-5.4c0-0.6,0-1.2,0-1.8c0-1.2-0.1-2.4-0.1-3.6c0-0.7-0.1-1.4-0.1-2.1
	c0-1.1-0.1-2.2-0.2-3.2c0-0.7-0.1-1.5-0.1-2.2c-0.1-1-0.1-2.1-0.2-3.1c-0.1-0.8-0.1-1.5-0.2-2.3c-0.1-1-0.2-2-0.3-3
	c-0.1-0.8-0.1-1.5-0.2-2.3c-0.1-1-0.2-2-0.3-3c-0.1-0.7-0.2-1.5-0.3-2.2c-0.1-1-0.2-2-0.4-3c-0.1-0.7-0.2-1.5-0.3-2.2
	c-0.1-1-0.3-2-0.4-3c-0.1-0.7-0.2-1.4-0.3-2.1c-0.2-1-0.3-2.1-0.5-3.1c-0.1-0.6-0.2-1.3-0.3-1.9c-0.2-1.2-0.4-2.3-0.6-3.5
	c-0.1-0.5-0.2-1-0.3-1.5c-0.3-1.7-0.7-3.3-1-5c0-0.1,0-0.2-0.1-0.3c-0.3-1.6-0.7-3.1-1-4.6c-0.1-0.5-0.3-1.1-0.4-1.6
	c-0.3-1.1-0.5-2.2-0.8-3.3c-0.2-0.6-0.3-1.2-0.5-1.9c-0.3-1-0.5-2-0.8-2.9c-0.2-0.7-0.4-1.3-0.5-2c-0.3-0.9-0.5-1.9-0.8-2.8
	c-0.2-0.7-0.4-1.3-0.6-2c-0.2-0.8-0.5-1.6-0.7-2.4l24.5-37.2c6.4-9,4.3-21.5-4.6-27.9c-1.3-0.9-2.7-1.7-4.2-2.3l-0.2-0.1
	c-9.3-3.7-19.8,0-24.8,8.6l-8.6,16.4c0-0.1-0.1-0.1-0.1-0.2c-0.4-0.8-0.9-1.6-1.3-2.3c-0.3-0.5-0.6-1.1-0.9-1.6
	c-0.4-0.8-0.9-1.5-1.3-2.2c-0.3-0.5-0.6-1.1-1-1.6c-0.4-0.7-0.9-1.5-1.4-2.2c-0.3-0.5-0.6-1-1-1.5c-0.5-0.7-0.9-1.4-1.4-2.2
	c-0.3-0.5-0.6-1-1-1.5c-0.5-0.7-1-1.5-1.5-2.2c-0.3-0.5-0.6-0.9-0.9-1.4c-0.5-0.8-1.1-1.5-1.6-2.3c-0.3-0.4-0.6-0.8-0.9-1.2
	c-0.7-0.9-1.3-1.8-2-2.6c-0.2-0.2-0.3-0.4-0.5-0.6c0,0,0,0,0,0c-14.2-18.2-31.1-32.1-49.6-40.4l0.4-0.6l-7.3-36.3l7.6-4.7
	C401,224,410,207.9,410,190.5v3.5h20c11,0,20-9,20-20v-16c0-9.7-6.9-17.7-16-19.6V94c0-33.1-26.9-60-60-60h-56
	c-33.1,0-60,26.9-60,60v44.4c-9.1,1.9-16,9.9-16,19.6v16c0,11,9,20,20,20h20v-3.7c0,17.2,8.9,33.3,23.5,42.4l7.8,4.9l-3.8,18.9l0,0
	L306,274l0.4,0.6c-5.6,2.5-11.1,5.6-16.4,9.1c-0.2-5.4-4.6-9.7-10-9.7h-94l-7-35.1c18.7-7.1,31-24.9,31-44.9c0-26.5-21.5-48-48-48
	c-26.5,0-48,21.5-48,48c0,20,12.4,37.8,31,44.9l-7,35.1H44c-5.5,0-10,4.5-10,10v126v14c0,5.5,4.5,10,10,10h79.5l-1.5,8v24H34v32h464
	v-32H482z"/>
<path class="st1" d="M424,152V84c0-33.1-26.9-60-60-60h-56c-33.1,0-60,26.9-60,60v68H424z"/>
<path class="st2" d="M336,256c75.1,0,136,89.5,136,200v8H184v-8c0-10.5,0.6-21,1.7-31.4c0.6-5.3,17.3-10.6,18.1-15.8
	C218.3,321.1,272,256,336,256z"/>
<path class="st3" d="M472,456c0-60.3-18.1-114.4-46.8-151c-17.9,20.9-41.6,37.9-66.1,50.9c-20.3,10.8-41.8,19.9-59.3,34.8
	C278.1,409,264.2,435.9,261,464h211L472,456z"/>
<path class="st4" d="M296,264l40,56l40-56l-8-40h-64L296,264z"/>
<path class="st5" d="M368,224h-64l-4.5,22.4l5.9,3.7c18.7,11.7,42.5,11.8,61.3,0.1l5.9-3.6L368,224z"/>
<path class="st4" d="M420,128h-20v-8h-18.7c-28.1,0-54.1-14.7-68.6-38.8L312,80l-40,40v8h-20c-11,0-20,9-20,20v16c0,11,9,20,20,20
	h20v-3.7c0,17.2,8.9,33.3,23.5,42.4l19.4,12.1c12.9,8.1,29.3,8.1,42.2,0.1l19.1-11.9C391,214,400,197.9,400,180.5v3.5h20
	c11,0,20-9,20-20v-16C440,137,431,128,420,128L420,128z"/>
<g>
	<path class="st2" d="M200,184c0-26.5-21.5-48-48-48s-48,21.5-48,48c0,20,12.4,37.8,31,44.9l-7,35.1h48l-7-35.1
		C187.7,221.8,200,204,200,184z"/>
	<path class="st1" d="M424,427l60.3-91.3c6.4-9,4.3-21.5-4.6-27.9c-1.3-0.9-2.7-1.7-4.2-2.3l-0.2-0.1c-9.3-3.7-19.8,0-24.8,8.6
		L400,411L424,427z"/>
	<path class="st4" d="M360,456v8h80v-16c0-22.1-17.9-40-40-40s-40,17.9-40,40V456z"/>
	<path class="st6" d="M270,424H34c-5.5,0-10-4.5-10-10V274c0-5.5,4.5-10,10-10h236c5.5,0,10,4.5,10,10v140
		C280,419.5,275.5,424,270,424z"/>
	<path class="st7" d="M198.2,400l-12.5-56.2c-1-4.6-5.1-7.8-9.8-7.8h-48c-4.7,0-8.7,3.3-9.8,7.8L105.8,400H24v14c0,5.5,4.5,10,10,10
		h236c5.5,0,10-4.5,10-10v-14H198.2z"/>
	<circle class="st1" cx="152" cy="200" r="32"/>
	<path class="st6" d="M112,464h80v-32l-16-88h-48l-16,88V464z"/>
	<path class="st7" d="M488,488H24v-32h464V488z"/>
</g>
<g>
	<path class="st8" d="M360,144h16v16h-16V144z"/>
	<path class="st8" d="M296,144h16v16h-16V144z"/>
	<path class="st8" d="M336,216c-13.5,0-24-8.8-24-20h16c0,1.4,3,4,8,4s8-2.6,8-4h16C360,207.2,349.5,216,336,216z"/>
</g>
<path class="st9" d="M144,192h16v16h-16V192z"/>
<path class="st10" d="M104,296h56v16h-56V296z"/>
<path class="st10" d="M176,296h24v16h-24V296z"/>
</svg>
